<svg version="1.1" id="Layer_1" xmlns="http://www.w3.org/2000/svg" xmlns:xlink="http://www.w3.org/1999/xlink" x="0px" y="0px"
	 width="100%" viewBox="0 0 1080 730" enable-background="new 0 0 1080 730" xml:space="preserve">
<path fill="#000000" opacity="1.000000" stroke="none" 
	d="
M599.000000,731.000000 
	C399.333344,731.000000 200.166687,731.000000 1.000027,731.000000 
	C1.000018,487.666687 1.000018,244.333389 1.000009,1.000059 
	C360.999969,1.000040 720.999939,1.000040 1081.000000,1.000020 
	C1081.000000,244.333267 1081.000000,487.666534 1081.000000,730.999878 
	C920.500000,731.000000 760.000000,731.000000 599.000000,731.000000 
M578.207703,241.479950 
	C569.490051,241.479950 560.772400,241.479950 552.054810,241.479950 
	C552.056091,242.042465 552.057434,242.604980 552.058777,243.167496 
	C556.647766,243.167496 561.249329,242.959900 565.821716,243.235519 
	C569.258667,243.442719 572.875610,241.602646 576.002747,244.873840 
	C576.002747,246.150177 576.002747,247.426498 576.002747,248.001709 
	C568.422180,250.175568 561.467651,252.314926 554.417419,254.069702 
	C553.002014,254.421982 550.754883,253.801346 549.694458,252.788406 
	C545.761719,249.031677 542.169678,244.918747 538.439331,240.949371 
	C536.542603,238.931137 534.616394,238.735794 532.626953,240.861374 
	C529.019165,244.716217 525.289368,248.462723 521.809021,252.428650 
	C520.164673,254.302429 519.168579,255.306351 516.155396,254.192657 
	C509.365814,251.683228 502.233917,250.099777 495.101379,248.100281 
	C495.033936,246.969711 494.945587,245.489105 494.926361,243.184418 
	C494.913879,243.019104 494.881104,242.852036 494.895325,242.689056 
	C494.906494,242.560913 494.986938,242.325317 495.017395,242.328400 
	C500.536346,242.884171 506.043488,243.675354 511.575378,243.929825 
	C514.038879,244.043152 516.552002,243.076736 519.042603,242.600388 
	C518.970520,242.064896 518.898499,241.529404 518.826416,240.993912 
	C509.872955,240.993912 500.919495,240.993912 491.893585,240.367630 
	C490.521698,238.571960 489.654266,239.271454 488.082916,241.110199 
	C479.566956,241.554428 470.903076,237.956390 462.501709,241.846420 
	C469.094330,242.517746 475.673584,242.480347 482.251892,242.543533 
	C483.937683,242.559738 485.620422,242.893631 486.419250,243.075058 
	C485.483734,248.399719 485.744568,253.338821 490.788635,257.189270 
	C492.220825,255.349197 493.417328,253.811905 494.731750,252.123123 
	C501.759216,257.067596 505.188507,264.522003 508.409882,272.394684 
	C507.603485,267.652893 506.797119,262.911072 505.835510,257.256470 
	C510.859955,260.107208 515.153625,262.543365 519.042969,264.750092 
	C523.414673,261.288574 527.756042,258.221405 531.637024,254.653458 
	C534.420715,252.094360 536.650208,252.829971 539.005310,254.752991 
	C543.070374,258.072235 547.043335,261.504303 551.023743,264.862732 
	C555.385437,262.449554 559.821716,259.995117 565.006653,257.126465 
	C564.127441,261.005615 563.498230,263.502319 563.007874,266.026001 
	C562.548523,268.389771 562.236328,270.782104 561.859375,273.161865 
	C566.785767,260.828156 568.706238,257.752777 575.655640,252.185547 
	C577.006592,253.865707 578.357483,255.545853 579.738647,257.263550 
	C584.776123,252.537369 585.594177,245.453125 582.741333,241.504028 
	C591.357666,241.504028 599.974060,241.504028 609.513245,241.504028 
	C599.783386,237.845963 590.821716,241.764084 581.961243,240.488373 
	C580.989685,240.654251 580.018066,240.820145 578.207703,241.479950 
M767.526245,384.891144 
	C780.346313,384.891235 793.167603,384.998505 805.986145,384.859375 
	C817.318115,384.736389 825.736206,379.026215 826.002380,368.082764 
	C826.345093,353.987885 827.061462,339.873383 826.624756,325.798096 
	C826.316650,315.869080 821.048523,309.615997 812.127014,309.193146 
	C792.907288,308.282288 773.617432,308.010101 754.387207,308.559540 
	C746.266724,308.791565 738.766663,315.635651 738.902222,326.451385 
	C739.066345,339.538025 738.601624,352.635101 738.275696,365.724365 
	C738.070374,373.970032 743.888306,382.332855 751.791687,383.813019 
	C756.605408,384.714569 761.615662,384.567291 767.526245,384.891144 
M675.503662,366.996552 
	C670.411682,366.996552 665.319641,366.996552 660.004028,366.996552 
	C660.004028,356.061981 659.923340,345.755707 660.055664,335.452209 
	C660.092957,332.549255 659.629578,330.618927 656.387756,329.765839 
	C653.937744,329.121094 651.707214,327.642578 648.922729,326.318115 
	C666.707092,326.318115 683.785706,326.318115 700.996338,326.318115 
	C700.996338,329.118896 701.155212,331.618561 700.956482,334.089447 
	C700.702576,337.245941 702.025635,338.161865 705.042908,337.961761 
	C708.690552,337.719849 712.366577,337.904480 716.030273,337.904358 
	C724.823792,337.904083 724.703003,337.902069 724.850342,328.973022 
	C725.068176,315.766876 718.627197,308.938782 706.915955,308.289337 
	C688.832581,307.286499 670.620300,307.689209 652.507751,308.500916 
	C642.825073,308.934906 636.585327,318.453583 636.859253,326.303986 
	C637.346863,340.275696 636.945435,354.277069 637.052429,368.264984 
	C637.068298,370.333984 637.452881,372.571930 638.312988,374.433105 
	C642.143372,382.721649 649.699463,384.688660 657.785522,384.818573 
	C673.269104,385.067444 688.760986,385.017273 704.246216,384.828857 
	C710.220703,384.756165 715.825806,383.349365 720.112244,378.450989 
	C726.213013,371.479340 724.362549,363.208160 724.950256,355.283447 
	C716.673462,355.283447 708.935547,355.283447 700.811951,355.283447 
	C700.811951,359.308502 700.811951,363.054413 700.811951,366.996552 
	C692.446655,366.996552 684.474304,366.996552 675.503662,366.996552 
M495.995667,329.500122 
	C495.995667,347.916718 495.995667,366.333282 495.995667,384.893799 
	C502.838684,384.893799 509.138611,384.893616 515.438538,384.894318 
	C515.771484,384.894348 516.159302,385.016296 516.427917,384.887024 
	C517.616089,384.315186 519.749146,383.718353 519.780762,383.047699 
	C520.023193,377.902191 520.915527,372.392792 519.395691,367.714417 
	C518.553711,365.122589 513.475952,363.889709 510.278320,362.096191 
	C509.715179,361.780273 509.008087,361.720947 508.367493,361.543121 
	C527.639221,361.004730 546.785217,361.009888 565.931213,361.002319 
	C574.324829,360.999023 581.163147,356.517029 582.811462,348.388611 
	C584.106201,342.004059 583.683838,335.269257 584.001221,328.688934 
	C584.656799,315.100555 576.043518,308.111694 563.417236,308.032288 
	C542.105835,307.898254 520.792908,307.991760 499.480652,308.006775 
	C498.378723,308.007538 497.276947,308.169250 495.995697,308.270142 
	C495.995697,315.220184 495.995697,321.860168 495.995667,329.500122 
M320.472961,307.993744 
	C306.141113,307.993561 291.806366,307.812500 277.478302,308.045074 
	C263.661041,308.269348 256.363129,314.779602 256.207367,329.123444 
	C256.019165,346.452942 256.254761,363.787018 256.077057,381.116730 
	C256.043335,384.407257 257.188904,385.070404 260.124054,384.952789 
	C265.115509,384.752686 270.145447,384.592163 275.112701,384.992188 
	C279.275726,385.327454 280.217194,383.797089 280.089050,379.920135 
	C279.816345,371.671173 280.005768,363.406952 280.005768,354.877411 
	C294.056885,354.877411 307.473785,354.877411 320.743561,354.877411 
	C320.743561,348.825897 320.743561,343.064514 320.743561,337.472046 
	C307.091766,337.472046 293.703705,337.472046 280.134186,337.472046 
	C280.044159,335.476807 279.947845,333.342865 279.862671,331.455963 
	C276.193512,329.749756 272.756195,328.151367 269.318878,326.552979 
	C269.392059,326.292206 269.465271,326.031433 269.538452,325.770660 
	C290.622620,325.770660 311.706757,325.770660 332.812469,325.770660 
	C332.812469,323.292572 332.822937,321.153046 332.810730,319.013641 
	C332.747925,307.991974 332.745880,307.991974 320.472961,307.993744 
M432.810577,315.716034 
	C431.857819,314.191986 431.070831,312.523285 429.903992,311.186035 
	C428.816772,309.940125 427.363068,308.200836 426.005737,308.140503 
	C419.076569,307.832550 412.126404,307.998230 405.014069,307.998230 
	C405.133148,308.866364 405.055634,309.417206 405.280731,309.780609 
	C412.827301,321.963928 420.246399,334.230652 428.039978,346.254517 
	C431.924622,352.247711 434.906311,358.107819 434.130402,365.659698 
	C433.477844,372.010773 433.996216,378.482147 433.996216,384.662567 
	C442.092346,384.662567 449.507843,384.662567 457.005005,384.662567 
	C457.005005,375.880005 456.877960,367.392761 457.093994,358.914215 
	C457.148224,356.785400 457.900909,354.437805 459.020264,352.612366 
	C464.787903,343.206696 470.831940,333.971039 476.672211,324.609100 
	C479.969910,319.322906 483.060913,313.907745 486.574432,307.996521 
	C478.942383,307.996521 472.134308,307.871185 465.339325,308.113037 
	C464.128387,308.156128 462.598785,309.478455 461.849518,310.624176 
	C456.359161,319.019806 451.030090,327.520874 445.500549,336.224335 
	C441.196075,329.407806 437.100739,322.922455 432.810577,315.716034 
M621.001770,354.500000 
	C621.001770,339.072418 621.001770,323.644806 621.001770,308.285095 
	C612.689636,308.285095 604.950623,308.285095 597.284973,308.285095 
	C597.284973,333.971649 597.284973,359.371704 597.284973,384.690460 
	C605.310364,384.690460 613.045776,384.690460 621.001770,384.690460 
	C621.001770,374.783539 621.001770,365.141754 621.001770,354.500000 
M343.179352,335.500977 
	C343.179352,343.916870 343.179352,352.332794 343.179352,360.751160 
	C351.272797,360.751160 358.998047,360.751160 366.792419,360.751160 
	C366.792419,343.118042 366.792419,325.740936 366.792419,308.350769 
	C359.059082,308.350769 351.543488,308.350769 343.179352,308.350769 
	C343.179352,317.311371 343.179352,325.906586 343.179352,335.500977 
M399.488525,384.895355 
	C403.317383,384.902893 407.164185,385.117035 410.963745,384.787079 
	C412.048462,384.692932 413.807220,383.070526 413.869324,382.063354 
	C414.172699,377.141907 414.006714,372.191528 414.006714,366.993073 
	C397.398865,366.993073 381.283478,366.993103 365.168121,366.993073 
	C351.344818,366.993073 346.860779,370.495789 343.199890,384.895416 
	C361.777344,384.895416 380.135071,384.895416 399.488525,384.895355 
M472.363220,417.910339 
	C469.688293,417.517609 467.013367,417.124908 464.365387,416.736176 
	C462.739471,428.532257 461.214111,439.598724 459.673401,450.776794 
	C461.876953,450.776794 463.288666,450.776794 464.640381,450.776794 
	C465.248657,445.699615 465.830719,440.841064 466.412811,435.982544 
	C466.909119,436.037476 467.405457,436.092407 467.901794,436.147369 
	C467.314453,440.930634 466.727081,445.713867 466.109344,450.744659 
	C467.680603,450.744659 469.224335,450.744659 470.840271,450.744659 
	C471.578125,444.100739 472.287842,437.710358 472.997559,431.319977 
	C473.754303,436.166443 473.247131,440.862457 473.044647,445.571564 
	C472.948395,447.810638 471.839050,450.887177 476.023895,451.028625 
	C479.349243,451.140961 482.372620,451.167603 483.030304,446.785400 
	C484.275360,438.489532 485.846497,430.238708 486.908966,421.921478 
	C487.287262,418.960419 485.575592,416.967224 482.138123,416.969849 
	C477.601959,416.973297 475.803192,419.511658 475.768677,423.560760 
	C474.892792,421.700378 474.036896,419.882477 472.363220,417.910339 
M601.545898,450.934601 
	C604.817383,451.507355 606.757385,450.648621 607.102051,446.851318 
	C607.339111,444.238678 608.479126,441.708008 609.215576,439.140686 
	C609.497314,439.199738 609.779053,439.258789 610.060791,439.317841 
	C609.711121,443.175537 609.361511,447.033203 609.029236,450.699585 
	C613.201050,451.855225 614.636475,450.158875 615.049561,446.732910 
	C615.376221,444.024200 616.136414,441.367706 616.705322,438.688324 
	C618.206482,431.618317 619.708313,424.548462 621.209839,417.478546 
	C620.663696,417.241760 620.117615,417.004974 619.571472,416.768188 
	C613.729248,418.829590 617.037781,425.789215 613.898621,429.944183 
	C613.898621,425.370483 613.898621,421.250366 613.898621,416.193420 
	C607.087830,419.095184 610.413086,425.941803 606.761780,430.037781 
	C607.153381,425.501770 607.501953,421.463928 607.857727,417.343353 
	C606.190186,417.343353 604.671692,417.343353 603.268005,417.343353 
	C602.507446,428.524384 601.770752,439.354004 601.545898,450.934601 
M490.880280,437.169708 
	C491.645050,430.548828 492.409851,423.927979 493.170593,417.342072 
	C489.100006,416.351959 487.707306,417.774963 487.947052,421.309631 
	C488.033051,422.577850 487.614227,423.878876 487.438049,425.166565 
	C486.277863,433.646667 485.121063,442.127228 483.932770,450.830017 
	C490.098083,450.830017 495.873962,450.830017 503.480194,450.830017 
	C501.320984,448.672455 500.141693,447.494049 498.528412,445.882019 
	C499.776642,436.986359 501.160034,427.127380 502.559601,417.153046 
	C499.809418,416.969147 497.290741,416.164429 496.899048,420.496216 
	C496.079071,429.564636 494.737701,438.585938 493.614349,447.595184 
	C492.081726,447.595184 490.664948,447.595184 489.095551,447.595184 
	C489.540344,444.338379 489.977936,441.134369 490.880280,437.169708 
M540.327759,416.990967 
	C537.046753,416.990967 533.765747,416.990967 530.679810,416.990967 
	C529.040161,428.675140 527.488892,439.729248 525.890564,451.119080 
	C528.041260,450.963715 529.462158,450.861053 530.700806,450.771576 
	C532.211731,440.619263 533.670410,430.817871 535.129089,421.016449 
	C535.816772,421.030731 536.504456,421.045013 537.192139,421.059296 
	C538.016602,425.664551 536.200562,430.369415 535.889465,434.959503 
	C535.530212,440.259613 534.432373,445.509705 533.655273,450.781494 
	C534.217285,451.106781 534.779236,451.432098 535.341187,451.757385 
	C536.563843,450.530304 538.618591,449.449188 538.863892,448.050659 
	C539.879822,442.259216 540.163025,436.342102 541.091492,430.531281 
	C541.606079,427.310577 542.667786,424.130737 543.877014,421.089142 
	C544.401306,419.770203 545.918945,418.846100 547.711792,416.990936 
	C544.578674,416.990936 542.916016,416.990936 540.327759,416.990967 
M560.793701,417.033173 
	C560.191406,418.097778 559.263916,419.099915 559.045105,420.238220 
	C558.249268,424.380066 557.601440,428.556030 557.063538,432.740479 
	C556.301025,438.672668 555.685364,444.623749 554.995850,450.663818 
	C556.861938,450.663818 558.386963,450.663818 559.605286,450.663818 
	C560.336975,445.572815 561.014893,440.855621 561.692871,436.138458 
	C562.168030,436.206848 562.643188,436.275238 563.118347,436.343628 
	C562.451538,441.061554 561.784729,445.779449 561.082764,450.746521 
	C562.679688,450.746521 564.228271,450.746521 565.760986,450.746521 
	C567.384827,439.443237 568.972595,428.391083 570.572815,417.251923 
	C566.211975,415.954773 565.357666,418.671997 564.986389,422.039459 
	C564.595276,425.585480 564.134216,429.123718 563.573975,433.733398 
	C562.691162,432.173218 562.063599,431.586670 562.142273,431.118805 
	C562.677002,427.937408 563.672424,424.799438 563.860779,421.608582 
	C563.951111,420.077637 565.785339,416.867920 560.793701,417.033173 
M542.997253,447.234314 
	C543.863159,452.109528 547.706543,451.259949 550.801453,450.881622 
	C554.029724,450.486969 555.515198,444.626709 554.570618,437.094757 
	C547.276489,437.018982 552.145935,444.764648 547.917969,447.161743 
	C549.235718,438.173889 550.486084,429.646149 551.736450,421.118408 
	C552.184875,421.184174 552.633301,421.249969 553.081787,421.315735 
	C552.867004,422.865112 552.633423,424.412201 552.442627,425.964539 
	C552.249756,427.533691 552.099182,429.108063 551.926392,430.713776 
	C556.385071,430.775909 556.575989,430.803711 557.789124,422.469757 
	C558.024231,420.854462 556.574402,418.172760 555.114929,417.302124 
	C552.037659,415.466431 547.790527,417.846466 547.049683,421.769714 
	C545.507812,429.935486 544.339783,438.171875 542.997253,447.234314 
M523.258240,416.994507 
	C519.664368,416.511414 517.733032,417.398468 517.854797,421.711639 
	C517.948730,425.042328 516.694031,428.393066 516.232239,431.761353 
	C515.375000,438.013580 514.658997,444.285187 513.867493,450.683655 
	C515.848572,450.683655 517.368103,450.683655 518.652161,450.683655 
	C519.217163,446.305786 519.737122,442.277100 520.269836,438.149323 
	C524.240540,437.857574 527.413818,436.937683 527.135071,431.891876 
	C527.004395,429.527710 527.299133,426.920258 528.208984,424.763947 
	C530.128906,420.213776 528.512878,417.992645 523.258240,416.994507 
M593.956787,425.253571 
	C591.914856,433.668121 589.872925,442.082703 587.780823,450.703979 
	C595.650818,452.243927 590.944824,443.788391 595.827942,442.231140 
	C595.544312,445.344116 595.298462,448.043030 595.050171,450.768372 
	C596.914673,450.768372 598.322632,450.768372 599.722961,450.768372 
	C600.327820,439.527954 600.920044,428.521759 601.525879,417.263245 
	C599.685913,417.263245 597.598083,417.263245 595.406555,417.263245 
	C594.927429,419.674652 594.459045,422.032013 593.956787,425.253571 
M580.995544,449.518524 
	C582.487915,450.161743 583.980347,450.804962 584.939026,451.218140 
	C588.054077,439.406433 590.945740,428.442047 593.879639,417.317261 
	C587.221558,415.622803 589.443237,422.164001 586.847412,424.922516 
	C586.847412,422.051727 586.847412,419.632660 586.847412,417.230804 
	C585.084229,417.230804 583.685425,417.230804 582.135681,417.230804 
	C582.135681,420.587036 582.245422,423.713837 582.113525,426.830383 
	C581.805969,434.099579 581.382202,441.363892 580.995544,449.518524 
M571.510559,450.997559 
	C572.146423,449.505859 572.782288,448.014191 573.570251,446.165649 
	C571.089172,446.165649 569.675110,446.165649 568.202576,446.165649 
	C568.006042,447.803528 567.829529,449.274628 567.621216,451.010315 
	C568.732605,451.010315 569.695740,451.010315 571.510559,450.997559 
M503.049927,446.685699 
	C503.049927,448.083649 503.049927,449.481567 503.049927,451.090393 
	C505.024384,450.961700 506.422699,450.870544 507.766541,450.782959 
	C507.766541,449.058716 507.766541,447.663391 507.766541,446.050934 
	C506.255554,446.050934 504.976685,446.050934 503.049927,446.685699 
z"/>
<path fill="#FCFDFE" opacity="1.000000" stroke="none" 
	d="
M767.031921,384.891113 
	C761.615662,384.567291 756.605408,384.714569 751.791687,383.813019 
	C743.888306,382.332855 738.070374,373.970032 738.275696,365.724365 
	C738.601624,352.635101 739.066345,339.538025 738.902222,326.451385 
	C738.766663,315.635651 746.266724,308.791565 754.387207,308.559540 
	C773.617432,308.010101 792.907288,308.282288 812.127014,309.193146 
	C821.048523,309.615997 826.316650,315.869080 826.624756,325.798096 
	C827.061462,339.873383 826.345093,353.987885 826.002380,368.082764 
	C825.736206,379.026215 817.318115,384.736389 805.986145,384.859375 
	C793.167603,384.998505 780.346313,384.891235 767.031921,384.891113 
M752.350708,327.019806 
	C755.568970,328.532684 758.787231,330.045563 762.155579,331.628998 
	C762.155579,343.383789 762.155579,354.998779 762.155579,366.788635 
	C775.813843,366.788635 789.216003,366.788635 802.784546,366.788635 
	C802.784546,353.178284 802.784546,339.776093 802.784546,326.061951 
	C785.621826,326.061951 768.668701,326.061157 751.715637,326.096222 
	C751.660645,326.096313 751.606628,326.616486 752.350708,327.019806 
z"/>
<path fill="#FCFDFE" opacity="1.000000" stroke="none" 
	d="
M676.002808,366.996552 
	C684.474304,366.996552 692.446655,366.996552 700.811951,366.996552 
	C700.811951,363.054413 700.811951,359.308502 700.811951,355.283447 
	C708.935547,355.283447 716.673462,355.283447 724.950256,355.283447 
	C724.362549,363.208160 726.213013,371.479340 720.112244,378.450989 
	C715.825806,383.349365 710.220703,384.756165 704.246216,384.828857 
	C688.760986,385.017273 673.269104,385.067444 657.785522,384.818573 
	C649.699463,384.688660 642.143372,382.721649 638.312988,374.433105 
	C637.452881,372.571930 637.068298,370.333984 637.052429,368.264984 
	C636.945435,354.277069 637.346863,340.275696 636.859253,326.303986 
	C636.585327,318.453583 642.825073,308.934906 652.507751,308.500916 
	C670.620300,307.689209 688.832581,307.286499 706.915955,308.289337 
	C718.627197,308.938782 725.068176,315.766876 724.850342,328.973022 
	C724.703003,337.902069 724.823792,337.904083 716.030273,337.904358 
	C712.366577,337.904480 708.690552,337.719849 705.042908,337.961761 
	C702.025635,338.161865 700.702576,337.245941 700.956482,334.089447 
	C701.155212,331.618561 700.996338,329.118896 700.996338,326.318115 
	C683.785706,326.318115 666.707092,326.318115 648.922729,326.318115 
	C651.707214,327.642578 653.937744,329.121094 656.387756,329.765839 
	C659.629578,330.618927 660.092957,332.549255 660.055664,335.452209 
	C659.923340,345.755707 660.004028,356.061981 660.004028,366.996552 
	C665.319641,366.996552 670.411682,366.996552 676.002808,366.996552 
z"/>
<path fill="#FCFDFD" opacity="1.000000" stroke="none" 
	d="
M495.995667,329.000153 
	C495.995697,321.860168 495.995697,315.220184 495.995697,308.270142 
	C497.276947,308.169250 498.378723,308.007538 499.480652,308.006775 
	C520.792908,307.991760 542.105835,307.898254 563.417236,308.032288 
	C576.043518,308.111694 584.656799,315.100555 584.001221,328.688934 
	C583.683838,335.269257 584.106201,342.004059 582.811462,348.388611 
	C581.163147,356.517029 574.324829,360.999023 565.931213,361.002319 
	C546.785217,361.009888 527.639221,361.004730 508.367493,361.543121 
	C509.008087,361.720947 509.715179,361.780273 510.278320,362.096191 
	C513.475952,363.889709 518.553711,365.122589 519.395691,367.714417 
	C520.915527,372.392792 520.023193,377.902191 519.780762,383.047699 
	C519.749146,383.718353 517.616089,384.315186 516.427917,384.887024 
	C516.159302,385.016296 515.771484,384.894348 515.438538,384.894318 
	C509.138611,384.893616 502.838684,384.893799 495.995667,384.893799 
	C495.995667,366.333282 495.995667,347.916718 495.995667,329.000153 
M527.752808,343.306610 
	C538.495117,343.306610 549.237366,343.306610 560.300842,343.306610 
	C560.300842,337.625641 560.300842,331.963135 560.300842,326.348480 
	C543.308350,326.348480 526.390930,326.348480 509.473480,326.348480 
	C518.422913,328.804016 522.196289,334.192841 519.361633,343.307465 
	C522.309570,343.307465 524.572815,343.307465 527.752808,343.306610 
z"/>
<path fill="#FAFCFD" opacity="1.000000" stroke="none" 
	d="
M320.967590,307.993774 
	C332.745880,307.991974 332.747925,307.991974 332.810730,319.013641 
	C332.822937,321.153046 332.812469,323.292572 332.812469,325.770660 
	C311.706757,325.770660 290.622620,325.770660 269.538452,325.770660 
	C269.465271,326.031433 269.392059,326.292206 269.318878,326.552979 
	C272.756195,328.151367 276.193512,329.749756 279.862671,331.455963 
	C279.947845,333.342865 280.044159,335.476807 280.134186,337.472046 
	C293.703705,337.472046 307.091766,337.472046 320.743561,337.472046 
	C320.743561,343.064514 320.743561,348.825897 320.743561,354.877411 
	C307.473785,354.877411 294.056885,354.877411 280.005768,354.877411 
	C280.005768,363.406952 279.816345,371.671173 280.089050,379.920135 
	C280.217194,383.797089 279.275726,385.327454 275.112701,384.992188 
	C270.145447,384.592163 265.115509,384.752686 260.124054,384.952789 
	C257.188904,385.070404 256.043335,384.407257 256.077057,381.116730 
	C256.254761,363.787018 256.019165,346.452942 256.207367,329.123444 
	C256.363129,314.779602 263.661041,308.269348 277.478302,308.045074 
	C291.806366,307.812500 306.141113,307.993561 320.967590,307.993774 
z"/>
<path fill="#FCFDFD" opacity="1.000000" stroke="none" 
	d="
M432.907990,316.076569 
	C437.100739,322.922455 441.196075,329.407806 445.500549,336.224335 
	C451.030090,327.520874 456.359161,319.019806 461.849518,310.624176 
	C462.598785,309.478455 464.128387,308.156128 465.339325,308.113037 
	C472.134308,307.871185 478.942383,307.996521 486.574432,307.996521 
	C483.060913,313.907745 479.969910,319.322906 476.672211,324.609100 
	C470.831940,333.971039 464.787903,343.206696 459.020264,352.612366 
	C457.900909,354.437805 457.148224,356.785400 457.093994,358.914215 
	C456.877960,367.392761 457.005005,375.880005 457.005005,384.662567 
	C449.507843,384.662567 442.092346,384.662567 433.996216,384.662567 
	C433.996216,378.482147 433.477844,372.010773 434.130402,365.659698 
	C434.906311,358.107819 431.924622,352.247711 428.039978,346.254517 
	C420.246399,334.230652 412.827301,321.963928 405.280731,309.780609 
	C405.055634,309.417206 405.133148,308.866364 405.014069,307.998230 
	C412.126404,307.998230 419.076569,307.832550 426.005737,308.140503 
	C427.363068,308.200836 428.816772,309.940125 429.903992,311.186035 
	C431.070831,312.523285 431.857819,314.191986 432.907990,316.076569 
z"/>
<path fill="#FEFEFE" opacity="1.000000" stroke="none" 
	d="
M621.001770,355.000000 
	C621.001770,365.141754 621.001770,374.783539 621.001770,384.690460 
	C613.045776,384.690460 605.310364,384.690460 597.284973,384.690460 
	C597.284973,359.371704 597.284973,333.971649 597.284973,308.285095 
	C604.950623,308.285095 612.689636,308.285095 621.001770,308.285095 
	C621.001770,323.644806 621.001770,339.072418 621.001770,355.000000 
z"/>
<path fill="#FBFDFD" opacity="1.000000" stroke="none" 
	d="
M343.179352,335.001404 
	C343.179352,325.906586 343.179352,317.311371 343.179352,308.350769 
	C351.543488,308.350769 359.059082,308.350769 366.792419,308.350769 
	C366.792419,325.740936 366.792419,343.118042 366.792419,360.751160 
	C358.998047,360.751160 351.272797,360.751160 343.179352,360.751160 
	C343.179352,352.332794 343.179352,343.916870 343.179352,335.001404 
z"/>
<path fill="#F9FCFD" opacity="1.000000" stroke="none" 
	d="
M398.990662,384.895386 
	C380.135071,384.895416 361.777344,384.895416 343.199890,384.895416 
	C346.860779,370.495789 351.344818,366.993073 365.168121,366.993073 
	C381.283478,366.993103 397.398865,366.993073 414.006714,366.993073 
	C414.006714,372.191528 414.172699,377.141907 413.869324,382.063354 
	C413.807220,383.070526 412.048462,384.692932 410.963745,384.787079 
	C407.164185,385.117035 403.317383,384.902893 398.990662,384.895386 
z"/>
<path fill="#F9FCFD" opacity="1.000000" stroke="none" 
	d="
M494.857239,244.008514 
	C494.945587,245.489105 495.033936,246.969711 495.101379,248.100281 
	C502.233917,250.099777 509.365814,251.683228 516.155396,254.192657 
	C519.168579,255.306351 520.164673,254.302429 521.809021,252.428650 
	C525.289368,248.462723 529.019165,244.716217 532.626953,240.861374 
	C534.616394,238.735794 536.542603,238.931137 538.439331,240.949371 
	C542.169678,244.918747 545.761719,249.031677 549.694458,252.788406 
	C550.754883,253.801346 553.002014,254.421982 554.417419,254.069702 
	C561.467651,252.314926 568.422180,250.175568 576.002747,248.001709 
	C576.002747,247.426498 576.002747,246.150177 576.411072,244.428421 
	C577.561768,242.984009 578.304138,241.985016 579.046509,240.986023 
	C580.018066,240.820145 580.989685,240.654251 581.929565,240.998138 
	C581.897827,241.507889 581.953979,241.876633 581.953979,241.876633 
	C585.594177,245.453125 584.776123,252.537369 579.738647,257.263550 
	C578.357483,255.545853 577.006592,253.865707 575.659485,252.187897 
	C568.706238,257.752777 566.785767,260.828156 561.859375,273.161865 
	C562.236328,270.782104 562.548523,268.389771 563.007874,266.026001 
	C563.498230,263.502319 564.127441,261.005615 565.006653,257.126465 
	C559.821716,259.995117 555.385437,262.449554 551.023743,264.862732 
	C547.043335,261.504303 543.070374,258.072235 539.005310,254.752991 
	C536.650208,252.829971 534.420715,252.094360 531.637024,254.653458 
	C527.756042,258.221405 523.414673,261.288574 519.042969,264.750092 
	C515.153625,262.543365 510.859955,260.107208 505.835510,257.256470 
	C506.797119,262.911072 507.603485,267.652893 508.409882,272.394684 
	C505.188507,264.522003 501.759216,257.067596 494.731750,252.123123 
	C493.417328,253.811905 492.220825,255.349197 490.788635,257.189270 
	C485.744568,253.338821 485.483734,248.399719 487.171387,243.035431 
	C488.277679,242.315689 488.631775,241.635590 488.985870,240.955475 
	C489.654266,239.271454 490.521698,238.571960 491.708252,240.874466 
	C492.634338,242.257050 493.745789,243.132782 494.857239,244.008514 
z"/>
<path fill="#FBFDFD" opacity="1.000000" stroke="none" 
	d="
M472.772095,417.987457 
	C474.036896,419.882477 474.892792,421.700378 475.768677,423.560760 
	C475.803192,419.511658 477.601959,416.973297 482.138123,416.969849 
	C485.575592,416.967224 487.287262,418.960419 486.908966,421.921478 
	C485.846497,430.238708 484.275360,438.489532 483.030304,446.785400 
	C482.372620,451.167603 479.349243,451.140961 476.023895,451.028625 
	C471.839050,450.887177 472.948395,447.810638 473.044647,445.571564 
	C473.247131,440.862457 473.754303,436.166443 472.997559,431.319977 
	C472.287842,437.710358 471.578125,444.100739 470.840271,450.744659 
	C469.224335,450.744659 467.680603,450.744659 466.109344,450.744659 
	C466.727081,445.713867 467.314453,440.930634 467.901794,436.147369 
	C467.405457,436.092407 466.909119,436.037476 466.412811,435.982544 
	C465.830719,440.841064 465.248657,445.699615 464.640381,450.776794 
	C463.288666,450.776794 461.876953,450.776794 459.673401,450.776794 
	C461.214111,439.598724 462.739471,428.532257 464.365387,416.736176 
	C467.013367,417.124908 469.688293,417.517609 472.772095,417.987457 
M478.135864,446.440033 
	C479.529022,438.108215 480.922180,429.776398 482.315338,421.444611 
	C481.777496,421.364441 481.239655,421.284271 480.701813,421.204102 
	C480.330627,423.826508 479.926178,426.444733 479.595093,429.072174 
	C478.847839,435.002106 478.136810,440.936584 478.135864,446.440033 
z"/>
<path fill="#FBFDFD" opacity="1.000000" stroke="none" 
	d="
M601.289978,450.559082 
	C601.770752,439.354004 602.507446,428.524384 603.268005,417.343353 
	C604.671692,417.343353 606.190186,417.343353 607.857727,417.343353 
	C607.501953,421.463928 607.153381,425.501770 606.761780,430.037781 
	C610.413086,425.941803 607.087830,419.095184 613.898621,416.193420 
	C613.898621,421.250366 613.898621,425.370483 613.898621,429.944183 
	C617.037781,425.789215 613.729248,418.829590 619.571472,416.768188 
	C620.117615,417.004974 620.663696,417.241760 621.209839,417.478546 
	C619.708313,424.548462 618.206482,431.618317 616.705322,438.688324 
	C616.136414,441.367706 615.376221,444.024200 615.049561,446.732910 
	C614.636475,450.158875 613.201050,451.855225 609.029236,450.699585 
	C609.361511,447.033203 609.711121,443.175537 610.060791,439.317841 
	C609.779053,439.258789 609.497314,439.199738 609.215576,439.140686 
	C608.479126,441.708008 607.339111,444.238678 607.102051,446.851318 
	C606.757385,450.648621 604.817383,451.507355 601.289978,450.559082 
z"/>
<path fill="#F9FCFD" opacity="1.000000" stroke="none" 
	d="
M490.647888,437.550049 
	C489.977936,441.134369 489.540344,444.338379 489.095551,447.595184 
	C490.664948,447.595184 492.081726,447.595184 493.614349,447.595184 
	C494.737701,438.585938 496.079071,429.564636 496.899048,420.496216 
	C497.290741,416.164429 499.809418,416.969147 502.559601,417.153046 
	C501.160034,427.127380 499.776642,436.986359 498.528412,445.882019 
	C500.141693,447.494049 501.320984,448.672455 503.480194,450.830017 
	C495.873962,450.830017 490.098083,450.830017 483.932770,450.830017 
	C485.121063,442.127228 486.277863,433.646667 487.438049,425.166565 
	C487.614227,423.878876 488.033051,422.577850 487.947052,421.309631 
	C487.707306,417.774963 489.100006,416.351959 493.170593,417.342072 
	C492.409851,423.927979 491.645050,430.548828 490.647888,437.550049 
z"/>
<path fill="#F8FAFB" opacity="1.000000" stroke="none" 
	d="
M540.790527,416.990967 
	C542.916016,416.990936 544.578674,416.990936 547.711792,416.990936 
	C545.918945,418.846100 544.401306,419.770203 543.877014,421.089142 
	C542.667786,424.130737 541.606079,427.310577 541.091492,430.531281 
	C540.163025,436.342102 539.879822,442.259216 538.863892,448.050659 
	C538.618591,449.449188 536.563843,450.530304 535.341187,451.757385 
	C534.779236,451.432098 534.217285,451.106781 533.655273,450.781494 
	C534.432373,445.509705 535.530212,440.259613 535.889465,434.959503 
	C536.200562,430.369415 538.016602,425.664551 537.192139,421.059296 
	C536.504456,421.045013 535.816772,421.030731 535.129089,421.016449 
	C533.670410,430.817871 532.211731,440.619263 530.700806,450.771576 
	C529.462158,450.861053 528.041260,450.963715 525.890564,451.119080 
	C527.488892,439.729248 529.040161,428.675140 530.679810,416.990967 
	C533.765747,416.990967 537.046753,416.990967 540.790527,416.990967 
z"/>
<path fill="#FCFDFE" opacity="1.000000" stroke="none" 
	d="
M561.237427,417.016632 
	C565.785339,416.867920 563.951111,420.077637 563.860779,421.608582 
	C563.672424,424.799438 562.677002,427.937408 562.142273,431.118805 
	C562.063599,431.586670 562.691162,432.173218 563.573975,433.733398 
	C564.134216,429.123718 564.595276,425.585480 564.986389,422.039459 
	C565.357666,418.671997 566.211975,415.954773 570.572815,417.251923 
	C568.972595,428.391083 567.384827,439.443237 565.760986,450.746521 
	C564.228271,450.746521 562.679688,450.746521 561.082764,450.746521 
	C561.784729,445.779449 562.451538,441.061554 563.118347,436.343628 
	C562.643188,436.275238 562.168030,436.206848 561.692871,436.138458 
	C561.014893,440.855621 560.336975,445.572815 559.605286,450.663818 
	C558.386963,450.663818 556.861938,450.663818 554.995850,450.663818 
	C555.685364,444.623749 556.301025,438.672668 557.063538,432.740479 
	C557.601440,428.556030 558.249268,424.380066 559.045105,420.238220 
	C559.263916,419.099915 560.191406,418.097778 561.237427,417.016632 
z"/>
<path fill="#F8FAFB" opacity="1.000000" stroke="none" 
	d="
M543.007690,446.806763 
	C544.339783,438.171875 545.507812,429.935486 547.049683,421.769714 
	C547.790527,417.846466 552.037659,415.466431 555.114929,417.302124 
	C556.574402,418.172760 558.024231,420.854462 557.789124,422.469757 
	C556.575989,430.803711 556.385071,430.775909 551.926392,430.713776 
	C552.099182,429.108063 552.249756,427.533691 552.442627,425.964539 
	C552.633423,424.412201 552.867004,422.865112 553.081787,421.315735 
	C552.633301,421.249969 552.184875,421.184174 551.736450,421.118408 
	C550.486084,429.646149 549.235718,438.173889 547.917969,447.161743 
	C552.145935,444.764648 547.276489,437.018982 554.570618,437.094757 
	C555.515198,444.626709 554.029724,450.486969 550.801453,450.881622 
	C547.706543,451.259949 543.863159,452.109528 543.007690,446.806763 
z"/>
<path fill="#F9FCFD" opacity="1.000000" stroke="none" 
	d="
M523.688843,416.998962 
	C528.512878,417.992645 530.128906,420.213776 528.208984,424.763947 
	C527.299133,426.920258 527.004395,429.527710 527.135071,431.891876 
	C527.413818,436.937683 524.240540,437.857574 520.269836,438.149323 
	C519.737122,442.277100 519.217163,446.305786 518.652161,450.683655 
	C517.368103,450.683655 515.848572,450.683655 513.867493,450.683655 
	C514.658997,444.285187 515.375000,438.013580 516.232239,431.761353 
	C516.694031,428.393066 517.948730,425.042328 517.854797,421.711639 
	C517.733032,417.398468 519.664368,416.511414 523.688843,416.998962 
z"/>
<path fill="#F9FCFD" opacity="1.000000" stroke="none" 
	d="
M593.973755,424.821472 
	C594.459045,422.032013 594.927429,419.674652 595.406555,417.263245 
	C597.598083,417.263245 599.685913,417.263245 601.525879,417.263245 
	C600.920044,428.521759 600.327820,439.527954 599.722961,450.768372 
	C598.322632,450.768372 596.914673,450.768372 595.050171,450.768372 
	C595.298462,448.043030 595.544312,445.344116 595.827942,442.231140 
	C590.944824,443.788391 595.650818,452.243927 587.780823,450.703979 
	C589.872925,442.082703 591.914856,433.668121 593.973755,424.821472 
z"/>
<path fill="#F8FAFB" opacity="1.000000" stroke="none" 
	d="
M581.000488,449.074341 
	C581.382202,441.363892 581.805969,434.099579 582.113525,426.830383 
	C582.245422,423.713837 582.135681,420.587036 582.135681,417.230804 
	C583.685425,417.230804 585.084229,417.230804 586.847412,417.230804 
	C586.847412,419.632660 586.847412,422.051727 586.847412,424.922516 
	C589.443237,422.164001 587.221558,415.622803 593.879639,417.317261 
	C590.945740,428.442047 588.054077,439.406433 584.939026,451.218140 
	C583.980347,450.804962 582.487915,450.161743 581.000488,449.074341 
z"/>
<path fill="#E4F1F6" opacity="1.000000" stroke="none" 
	d="
M578.627075,241.232986 
	C578.304138,241.985016 577.561768,242.984009 576.480042,243.995544 
	C572.875610,241.602646 569.258667,243.442719 565.821716,243.235519 
	C561.249329,242.959900 556.647766,243.167496 552.058777,243.167496 
	C552.057434,242.604980 552.056091,242.042465 552.054810,241.479950 
	C560.772400,241.479950 569.490051,241.479950 578.627075,241.232986 
z"/>
<path fill="#E4F1F6" opacity="1.000000" stroke="none" 
	d="
M494.891785,243.596466 
	C493.745789,243.132782 492.634338,242.257050 491.744476,241.187607 
	C500.919495,240.993912 509.872955,240.993912 518.826416,240.993912 
	C518.898499,241.529404 518.970520,242.064896 519.042603,242.600388 
	C516.552002,243.076736 514.038879,244.043152 511.575378,243.929825 
	C506.043488,243.675354 500.536346,242.884171 495.017395,242.328400 
	C494.986938,242.325317 494.906494,242.560913 494.895325,242.689056 
	C494.881104,242.852036 494.913879,243.019104 494.891785,243.596466 
z"/>
<path fill="#E4F1F6" opacity="1.000000" stroke="none" 
	d="
M582.347656,241.690338 
	C581.953979,241.876633 581.897827,241.507889 581.923218,241.323059 
	C590.821716,241.764084 599.783386,237.845963 609.513245,241.504028 
	C599.974060,241.504028 591.357666,241.504028 582.347656,241.690338 
z"/>
<path fill="#E4F1F6" opacity="1.000000" stroke="none" 
	d="
M488.534393,241.032837 
	C488.631775,241.635590 488.277679,242.315689 487.614075,243.038681 
	C485.620422,242.893631 483.937683,242.559738 482.251892,242.543533 
	C475.673584,242.480347 469.094330,242.517746 462.501709,241.846420 
	C470.903076,237.956390 479.566956,241.554428 488.534393,241.032837 
z"/>
<path fill="#F8FAFB" opacity="1.000000" stroke="none" 
	d="
M571.084717,451.003937 
	C569.695740,451.010315 568.732605,451.010315 567.621216,451.010315 
	C567.829529,449.274628 568.006042,447.803528 568.202576,446.165649 
	C569.675110,446.165649 571.089172,446.165649 573.570251,446.165649 
	C572.782288,448.014191 572.146423,449.505859 571.084717,451.003937 
z"/>
<path fill="#FEFEFE" opacity="1.000000" stroke="none" 
	d="
M503.373871,446.368317 
	C504.976685,446.050934 506.255554,446.050934 507.766541,446.050934 
	C507.766541,447.663391 507.766541,449.058716 507.766541,450.782959 
	C506.422699,450.870544 505.024384,450.961700 503.049927,451.090393 
	C503.049927,449.481567 503.049927,448.083649 503.373871,446.368317 
z"/>
<path fill="#000000" opacity="1.000000" stroke="none" 
	d="
M751.951416,326.956787 
	C751.606628,326.616486 751.660645,326.096313 751.715637,326.096222 
	C768.668701,326.061157 785.621826,326.061951 802.784546,326.061951 
	C802.784546,339.776093 802.784546,353.178284 802.784546,366.788635 
	C789.216003,366.788635 775.813843,366.788635 762.155579,366.788635 
	C762.155579,354.998779 762.155579,343.383789 762.155579,331.628998 
	C758.787231,330.045563 755.568970,328.532684 751.951416,326.956787 
z"/>
<path fill="#010104" opacity="1.000000" stroke="none" 
	d="
M527.294434,343.307037 
	C524.572815,343.307465 522.309570,343.307465 519.361633,343.307465 
	C522.196289,334.192841 518.422913,328.804016 509.473480,326.348480 
	C526.390930,326.348480 543.308350,326.348480 560.300842,326.348480 
	C560.300842,331.963135 560.300842,337.625641 560.300842,343.306610 
	C549.237366,343.306610 538.495117,343.306610 527.294434,343.307037 
z"/>
<path fill="#010104" opacity="1.000000" stroke="none" 
	d="
M477.773468,446.654633 
	C478.136810,440.936584 478.847839,435.002106 479.595093,429.072174 
	C479.926178,426.444733 480.330627,423.826508 480.701813,421.204102 
	C481.239655,421.284271 481.777496,421.364441 482.315338,421.444611 
	C480.922180,429.776398 479.529022,438.108215 477.773468,446.654633 
z"/>
</svg>